<svg xmlns="http://www.w3.org/2000/svg" xmlns:xlink="http://www.w3.org/1999/xlink" width="120" zoomAndPan="magnify" viewBox="0 0 90 30.000001" height="40" preserveAspectRatio="xMidYMid meet" version="1.0"><defs><g/><clipPath id="id1"><path d="M 1.453125 0 L 35.566406 0 L 35.566406 29.03125 L 1.453125 29.03125 Z M 1.453125 0 " clip-rule="nonzero"/></clipPath></defs><g clip-path="url(#id1)"><path fill="#45c7c5" d="M 33.992188 3.644531 C 31.515625 -0.238281 26.351562 -0.550781 23.125 0.550781 C 20.621094 1.40625 18.820312 3.78125 18.507812 4.1875 C 18.195312 3.78125 16.460938 1.453125 13.957031 0.605469 C 10.730469 -0.496094 5.5 -0.238281 3.023438 3.644531 C 2.042969 5.1875 -1.046875 10.171875 5.648438 17.871094 C 5.648438 17.871094 11.988281 25.15625 17.839844 28.679688 C 18.105469 28.835938 18.445312 29.046875 18.472656 29.03125 C 18.5 29.046875 18.875 28.84375 19.140625 28.679688 C 24.996094 25.15625 31.367188 17.871094 31.367188 17.871094 C 38.066406 10.171875 34.976562 5.1875 33.992188 3.644531 Z M 33.992188 3.644531 " fill-opacity="1" fill-rule="nonzero"/></g><path fill="#ffffff" d="M 17.4375 21.78125 C 17.207031 21.78125 16.992188 21.636719 16.910156 21.414062 L 12.90625 10.773438 L 11.394531 15.617188 C 11.320312 15.847656 11.101562 16.023438 10.855469 16.023438 L 6.558594 16.023438 C 6.242188 16.023438 5.992188 15.757812 5.992188 15.445312 C 5.992188 15.132812 6.242188 14.871094 6.558594 14.871094 L 10.4375 14.871094 L 12.320312 8.875 C 12.394531 8.644531 12.601562 8.488281 12.847656 8.480469 C 13.09375 8.472656 13.304688 8.621094 13.390625 8.847656 L 17.347656 19.355469 L 19.429688 11.414062 C 19.492188 11.183594 19.6875 11.019531 19.921875 11 C 20.152344 10.980469 20.378906 11.101562 20.480469 11.316406 L 22.136719 14.789062 L 23.957031 7.515625 C 24.019531 7.277344 24.230469 7.101562 24.476562 7.09375 C 24.722656 7.082031 24.953125 7.238281 25.035156 7.46875 L 26.375 11.25 L 31.550781 11.265625 C 31.863281 11.265625 32.109375 11.472656 32.109375 11.78125 C 32.109375 12.09375 31.855469 12.296875 31.542969 12.296875 L 25.964844 12.324219 C 25.726562 12.324219 25.511719 12.195312 25.433594 11.96875 L 24.585938 9.585938 L 22.832031 16.566406 C 22.777344 16.796875 22.582031 16.96875 22.339844 16.996094 C 22.101562 17.015625 21.878906 16.890625 21.777344 16.675781 L 20.105469 13.183594 L 17.960938 21.359375 C 17.902344 21.597656 17.691406 21.765625 17.445312 21.78125 C 17.457031 21.78125 17.449219 21.78125 17.4375 21.78125 Z M 17.4375 21.78125 " fill-opacity="1" fill-rule="nonzero"/><path fill="#ffffff" d="M 7.714844 15.324219 C 7.714844 15.484375 7.6875 15.640625 7.625 15.789062 C 7.5625 15.9375 7.472656 16.070312 7.359375 16.183594 C 7.246094 16.296875 7.113281 16.386719 6.964844 16.445312 C 6.8125 16.507812 6.65625 16.539062 6.496094 16.539062 C 6.332031 16.539062 6.179688 16.507812 6.027344 16.445312 C 5.878906 16.386719 5.746094 16.296875 5.632812 16.183594 C 5.519531 16.070312 5.429688 15.9375 5.367188 15.789062 C 5.304688 15.640625 5.273438 15.484375 5.273438 15.324219 C 5.273438 15.164062 5.304688 15.007812 5.367188 14.859375 C 5.429688 14.710938 5.519531 14.578125 5.632812 14.464844 C 5.746094 14.351562 5.878906 14.261719 6.027344 14.203125 C 6.179688 14.140625 6.332031 14.109375 6.496094 14.109375 C 6.65625 14.109375 6.8125 14.140625 6.964844 14.203125 C 7.113281 14.261719 7.246094 14.351562 7.359375 14.464844 C 7.472656 14.578125 7.5625 14.710938 7.625 14.859375 C 7.6875 15.007812 7.714844 15.164062 7.714844 15.324219 Z M 7.714844 15.324219 " fill-opacity="1" fill-rule="nonzero"/><path fill="#ffffff" d="M 33.304688 11.800781 C 33.304688 11.960938 33.273438 12.117188 33.210938 12.265625 C 33.148438 12.414062 33.058594 12.546875 32.945312 12.660156 C 32.832031 12.773438 32.699219 12.863281 32.550781 12.921875 C 32.398438 12.984375 32.246094 13.015625 32.082031 13.015625 C 31.921875 13.015625 31.765625 12.984375 31.617188 12.921875 C 31.464844 12.863281 31.332031 12.773438 31.21875 12.660156 C 31.105469 12.546875 31.015625 12.414062 30.953125 12.265625 C 30.890625 12.117188 30.863281 11.960938 30.863281 11.800781 C 30.863281 11.640625 30.890625 11.484375 30.953125 11.335938 C 31.015625 11.1875 31.105469 11.054688 31.21875 10.941406 C 31.332031 10.828125 31.464844 10.738281 31.617188 10.675781 C 31.765625 10.617188 31.921875 10.585938 32.082031 10.585938 C 32.246094 10.585938 32.398438 10.617188 32.550781 10.675781 C 32.699219 10.738281 32.832031 10.828125 32.945312 10.941406 C 33.058594 11.054688 33.148438 11.1875 33.210938 11.335938 C 33.273438 11.484375 33.304688 11.640625 33.304688 11.800781 Z M 33.304688 11.800781 " fill-opacity="1" fill-rule="nonzero"/><g fill="#000000" fill-opacity="1"><g transform="translate(41.897551, 11.612905)"><g><path d="M 5.875 -8.390625 L 5.875 0 L 4.390625 0 L 4.390625 -0.484375 C 3.847656 -0.078125 3.269531 0.125 2.65625 0.125 C 2.226562 0.125 1.84375 0.0234375 1.5 -0.171875 C 1.15625 -0.378906 0.882812 -0.675781 0.6875 -1.0625 C 0.5 -1.445312 0.40625 -1.898438 0.40625 -2.421875 C 0.40625 -2.929688 0.507812 -3.367188 0.71875 -3.734375 C 0.925781 -4.109375 1.210938 -4.394531 1.578125 -4.59375 C 1.953125 -4.789062 2.378906 -4.890625 2.859375 -4.890625 C 3.160156 -4.890625 3.445312 -4.835938 3.71875 -4.734375 C 3.988281 -4.640625 4.210938 -4.5 4.390625 -4.3125 L 4.390625 -8.390625 Z M 3.15625 -1.125 C 3.445312 -1.125 3.691406 -1.179688 3.890625 -1.296875 C 4.085938 -1.421875 4.253906 -1.597656 4.390625 -1.828125 L 4.390625 -2.96875 C 4.296875 -3.195312 4.140625 -3.378906 3.921875 -3.515625 C 3.703125 -3.648438 3.445312 -3.71875 3.15625 -3.71875 C 2.820312 -3.71875 2.53125 -3.59375 2.28125 -3.34375 C 2.039062 -3.101562 1.921875 -2.800781 1.921875 -2.4375 C 1.921875 -2.195312 1.972656 -1.972656 2.078125 -1.765625 C 2.191406 -1.566406 2.34375 -1.410156 2.53125 -1.296875 C 2.71875 -1.179688 2.925781 -1.125 3.15625 -1.125 Z M 3.15625 -1.125 "/></g></g></g><g fill="#000000" fill-opacity="1"><g transform="translate(48.854795, 11.612905)"><g><path d="M 0.40625 -2.390625 C 0.40625 -2.859375 0.515625 -3.28125 0.734375 -3.65625 C 0.960938 -4.03125 1.28125 -4.328125 1.6875 -4.546875 C 2.09375 -4.765625 2.554688 -4.875 3.078125 -4.875 C 3.597656 -4.875 4.050781 -4.765625 4.4375 -4.546875 C 4.832031 -4.328125 5.132812 -4.03125 5.34375 -3.65625 C 5.5625 -3.28125 5.671875 -2.859375 5.671875 -2.390625 C 5.671875 -1.910156 5.5625 -1.476562 5.34375 -1.09375 C 5.132812 -0.707031 4.832031 -0.40625 4.4375 -0.1875 C 4.050781 0.0195312 3.585938 0.125 3.046875 0.125 C 2.535156 0.125 2.078125 0.0234375 1.671875 -0.171875 C 1.273438 -0.378906 0.960938 -0.671875 0.734375 -1.046875 C 0.515625 -1.421875 0.40625 -1.867188 0.40625 -2.390625 Z M 1.90625 -2.375 C 1.90625 -2 2.007812 -1.6875 2.21875 -1.4375 C 2.4375 -1.195312 2.707031 -1.078125 3.03125 -1.078125 C 3.375 -1.078125 3.648438 -1.195312 3.859375 -1.4375 C 4.066406 -1.6875 4.171875 -2 4.171875 -2.375 C 4.171875 -2.75 4.066406 -3.054688 3.859375 -3.296875 C 3.648438 -3.535156 3.375 -3.65625 3.03125 -3.65625 C 2.707031 -3.65625 2.4375 -3.53125 2.21875 -3.28125 C 2.007812 -3.039062 1.90625 -2.738281 1.90625 -2.375 Z M 1.90625 -2.375 "/></g></g></g><g fill="#000000" fill-opacity="1"><g transform="translate(55.248237, 11.612905)"><g><path d="M 4.71875 -0.421875 C 4.507812 -0.253906 4.25 -0.117188 3.9375 -0.015625 C 3.632812 0.078125 3.332031 0.125 3.03125 0.125 C 2.21875 0.125 1.578125 -0.09375 1.109375 -0.53125 C 0.640625 -0.96875 0.40625 -1.566406 0.40625 -2.328125 C 0.40625 -2.828125 0.519531 -3.257812 0.75 -3.625 C 0.976562 -4 1.28125 -4.285156 1.65625 -4.484375 C 2.03125 -4.679688 2.4375 -4.78125 2.875 -4.78125 C 3.644531 -4.78125 4.269531 -4.570312 4.75 -4.15625 L 4.03125 -3.203125 C 3.726562 -3.441406 3.390625 -3.5625 3.015625 -3.5625 C 2.703125 -3.5625 2.4375 -3.441406 2.21875 -3.203125 C 2 -2.972656 1.890625 -2.679688 1.890625 -2.328125 C 1.890625 -1.972656 2.003906 -1.675781 2.234375 -1.4375 C 2.472656 -1.195312 2.78125 -1.078125 3.15625 -1.078125 C 3.488281 -1.078125 3.757812 -1.164062 3.96875 -1.34375 Z M 4.71875 -0.421875 "/></g></g></g><g fill="#000000" fill-opacity="1"><g transform="translate(60.663021, 11.612905)"><g><path d="M 2.6875 -6.6875 L 2.6875 -4.671875 L 3.8125 -4.671875 L 3.8125 -3.515625 L 2.6875 -3.515625 L 2.6875 0 L 1.203125 0 L 1.203125 -3.515625 L 0.484375 -3.515625 L 0.484375 -4.671875 L 1.203125 -4.671875 L 1.203125 -6.6875 Z M 2.6875 -6.6875 "/></g></g></g><g fill="#000000" fill-opacity="1"><g transform="translate(65.173602, 11.612905)"><g><path d="M 0.40625 -2.390625 C 0.40625 -2.859375 0.515625 -3.28125 0.734375 -3.65625 C 0.960938 -4.03125 1.28125 -4.328125 1.6875 -4.546875 C 2.09375 -4.765625 2.554688 -4.875 3.078125 -4.875 C 3.597656 -4.875 4.050781 -4.765625 4.4375 -4.546875 C 4.832031 -4.328125 5.132812 -4.03125 5.34375 -3.65625 C 5.5625 -3.28125 5.671875 -2.859375 5.671875 -2.390625 C 5.671875 -1.910156 5.5625 -1.476562 5.34375 -1.09375 C 5.132812 -0.707031 4.832031 -0.40625 4.4375 -0.1875 C 4.050781 0.0195312 3.585938 0.125 3.046875 0.125 C 2.535156 0.125 2.078125 0.0234375 1.671875 -0.171875 C 1.273438 -0.378906 0.960938 -0.671875 0.734375 -1.046875 C 0.515625 -1.421875 0.40625 -1.867188 0.40625 -2.390625 Z M 1.90625 -2.375 C 1.90625 -2 2.007812 -1.6875 2.21875 -1.4375 C 2.4375 -1.195312 2.707031 -1.078125 3.03125 -1.078125 C 3.375 -1.078125 3.648438 -1.195312 3.859375 -1.4375 C 4.066406 -1.6875 4.171875 -2 4.171875 -2.375 C 4.171875 -2.75 4.066406 -3.054688 3.859375 -3.296875 C 3.648438 -3.535156 3.375 -3.65625 3.03125 -3.65625 C 2.707031 -3.65625 2.4375 -3.53125 2.21875 -3.28125 C 2.007812 -3.039062 1.90625 -2.738281 1.90625 -2.375 Z M 1.90625 -2.375 "/></g></g></g><g fill="#000000" fill-opacity="1"><g transform="translate(71.567044, 11.612905)"><g><path d="M 2.21875 -3.578125 C 2.351562 -3.828125 2.53125 -4.050781 2.75 -4.25 C 2.96875 -4.445312 3.191406 -4.601562 3.421875 -4.71875 C 3.660156 -4.832031 3.847656 -4.890625 3.984375 -4.890625 L 3.921875 -3.390625 C 3.878906 -3.398438 3.816406 -3.40625 3.734375 -3.40625 C 3.429688 -3.40625 3.164062 -3.328125 2.9375 -3.171875 C 2.71875 -3.015625 2.546875 -2.8125 2.421875 -2.5625 C 2.304688 -2.320312 2.25 -2.070312 2.25 -1.8125 L 2.25 0 L 0.765625 0 L 0.765625 -4.65625 L 2.109375 -4.65625 Z M 2.21875 -3.578125 "/></g></g></g><g fill="#000000" fill-opacity="1"><g transform="translate(76.247826, 11.612905)"><g><path d="M 2.28125 0.09375 C 1.894531 0.09375 1.535156 0.0234375 1.203125 -0.109375 C 0.867188 -0.242188 0.59375 -0.429688 0.375 -0.671875 L 0.984375 -1.484375 C 1.398438 -1.109375 1.789062 -0.921875 2.15625 -0.921875 C 2.34375 -0.921875 2.492188 -0.945312 2.609375 -1 C 2.722656 -1.0625 2.78125 -1.15625 2.78125 -1.28125 C 2.78125 -1.414062 2.710938 -1.519531 2.578125 -1.59375 C 2.453125 -1.675781 2.304688 -1.738281 2.140625 -1.78125 C 1.972656 -1.832031 1.859375 -1.867188 1.796875 -1.890625 C 1.390625 -2.015625 1.085938 -2.203125 0.890625 -2.453125 C 0.691406 -2.703125 0.59375 -2.988281 0.59375 -3.3125 C 0.59375 -3.5625 0.65625 -3.804688 0.78125 -4.046875 C 0.914062 -4.285156 1.117188 -4.476562 1.390625 -4.625 C 1.671875 -4.78125 2.019531 -4.859375 2.4375 -4.859375 C 2.820312 -4.859375 3.144531 -4.816406 3.40625 -4.734375 C 3.675781 -4.660156 3.9375 -4.535156 4.1875 -4.359375 L 3.625 -3.484375 C 3.488281 -3.597656 3.332031 -3.691406 3.15625 -3.765625 C 2.976562 -3.847656 2.820312 -3.890625 2.6875 -3.890625 C 2.507812 -3.890625 2.367188 -3.851562 2.265625 -3.78125 C 2.160156 -3.707031 2.109375 -3.617188 2.109375 -3.515625 C 2.097656 -3.367188 2.15625 -3.257812 2.28125 -3.1875 C 2.414062 -3.113281 2.625 -3.035156 2.90625 -2.953125 C 2.945312 -2.941406 2.988281 -2.925781 3.03125 -2.90625 C 3.082031 -2.894531 3.132812 -2.882812 3.1875 -2.875 C 3.914062 -2.632812 4.28125 -2.191406 4.28125 -1.546875 C 4.28125 -1.253906 4.203125 -0.984375 4.046875 -0.734375 C 3.898438 -0.484375 3.675781 -0.28125 3.375 -0.125 C 3.070312 0.0195312 2.707031 0.09375 2.28125 0.09375 Z M 2.28125 0.09375 "/></g></g></g><g fill="#000000" fill-opacity="1"><g transform="translate(81.317914, 11.612905)"><g/></g></g><g fill="#000000" fill-opacity="1"><g transform="translate(35.535404, 21.774195)"><g><path d="M 5.875 -8.390625 L 5.875 0 L 4.390625 0 L 4.390625 -0.484375 C 3.847656 -0.078125 3.269531 0.125 2.65625 0.125 C 2.226562 0.125 1.84375 0.0234375 1.5 -0.171875 C 1.15625 -0.378906 0.882812 -0.675781 0.6875 -1.0625 C 0.5 -1.445312 0.40625 -1.898438 0.40625 -2.421875 C 0.40625 -2.929688 0.507812 -3.367188 0.71875 -3.734375 C 0.925781 -4.109375 1.210938 -4.394531 1.578125 -4.59375 C 1.953125 -4.789062 2.378906 -4.890625 2.859375 -4.890625 C 3.160156 -4.890625 3.445312 -4.835938 3.71875 -4.734375 C 3.988281 -4.640625 4.210938 -4.5 4.390625 -4.3125 L 4.390625 -8.390625 Z M 3.15625 -1.125 C 3.445312 -1.125 3.691406 -1.179688 3.890625 -1.296875 C 4.085938 -1.421875 4.253906 -1.597656 4.390625 -1.828125 L 4.390625 -2.96875 C 4.296875 -3.195312 4.140625 -3.378906 3.921875 -3.515625 C 3.703125 -3.648438 3.445312 -3.71875 3.15625 -3.71875 C 2.820312 -3.71875 2.53125 -3.59375 2.28125 -3.34375 C 2.039062 -3.101562 1.921875 -2.800781 1.921875 -2.4375 C 1.921875 -2.195312 1.972656 -1.972656 2.078125 -1.765625 C 2.191406 -1.566406 2.34375 -1.410156 2.53125 -1.296875 C 2.71875 -1.179688 2.925781 -1.125 3.15625 -1.125 Z M 3.15625 -1.125 "/></g></g></g><g fill="#000000" fill-opacity="1"><g transform="translate(42.492648, 21.774195)"><g><path d="M 0.40625 -2.390625 C 0.40625 -2.859375 0.515625 -3.28125 0.734375 -3.65625 C 0.960938 -4.03125 1.28125 -4.328125 1.6875 -4.546875 C 2.09375 -4.765625 2.554688 -4.875 3.078125 -4.875 C 3.597656 -4.875 4.050781 -4.765625 4.4375 -4.546875 C 4.832031 -4.328125 5.132812 -4.03125 5.34375 -3.65625 C 5.5625 -3.28125 5.671875 -2.859375 5.671875 -2.390625 C 5.671875 -1.910156 5.5625 -1.476562 5.34375 -1.09375 C 5.132812 -0.707031 4.832031 -0.40625 4.4375 -0.1875 C 4.050781 0.0195312 3.585938 0.125 3.046875 0.125 C 2.535156 0.125 2.078125 0.0234375 1.671875 -0.171875 C 1.273438 -0.378906 0.960938 -0.671875 0.734375 -1.046875 C 0.515625 -1.421875 0.40625 -1.867188 0.40625 -2.390625 Z M 1.90625 -2.375 C 1.90625 -2 2.007812 -1.6875 2.21875 -1.4375 C 2.4375 -1.195312 2.707031 -1.078125 3.03125 -1.078125 C 3.375 -1.078125 3.648438 -1.195312 3.859375 -1.4375 C 4.066406 -1.6875 4.171875 -2 4.171875 -2.375 C 4.171875 -2.75 4.066406 -3.054688 3.859375 -3.296875 C 3.648438 -3.535156 3.375 -3.65625 3.03125 -3.65625 C 2.707031 -3.65625 2.4375 -3.53125 2.21875 -3.28125 C 2.007812 -3.039062 1.90625 -2.738281 1.90625 -2.375 Z M 1.90625 -2.375 "/></g></g></g><g fill="#000000" fill-opacity="1"><g transform="translate(48.886089, 21.774195)"><g><path d="M 4.71875 -0.421875 C 4.507812 -0.253906 4.25 -0.117188 3.9375 -0.015625 C 3.632812 0.078125 3.332031 0.125 3.03125 0.125 C 2.21875 0.125 1.578125 -0.09375 1.109375 -0.53125 C 0.640625 -0.96875 0.40625 -1.566406 0.40625 -2.328125 C 0.40625 -2.828125 0.519531 -3.257812 0.75 -3.625 C 0.976562 -4 1.28125 -4.285156 1.65625 -4.484375 C 2.03125 -4.679688 2.4375 -4.78125 2.875 -4.78125 C 3.644531 -4.78125 4.269531 -4.570312 4.75 -4.15625 L 4.03125 -3.203125 C 3.726562 -3.441406 3.390625 -3.5625 3.015625 -3.5625 C 2.703125 -3.5625 2.4375 -3.441406 2.21875 -3.203125 C 2 -2.972656 1.890625 -2.679688 1.890625 -2.328125 C 1.890625 -1.972656 2.003906 -1.675781 2.234375 -1.4375 C 2.472656 -1.195312 2.78125 -1.078125 3.15625 -1.078125 C 3.488281 -1.078125 3.757812 -1.164062 3.96875 -1.34375 Z M 4.71875 -0.421875 "/></g></g></g><g fill="#000000" fill-opacity="1"><g transform="translate(54.300873, 21.774195)"><g><path d="M 5.453125 -4.65625 L 5.453125 0 L 4.09375 0 L 3.984375 -0.75 C 3.828125 -0.445312 3.597656 -0.207031 3.296875 -0.03125 C 3.003906 0.132812 2.660156 0.21875 2.265625 0.21875 C 1.835938 0.21875 1.484375 0.0859375 1.203125 -0.171875 C 0.921875 -0.429688 0.773438 -0.765625 0.765625 -1.171875 L 0.765625 -4.65625 L 2.25 -4.65625 L 2.25 -1.71875 C 2.269531 -1.269531 2.484375 -1.046875 2.890625 -1.046875 C 3.210938 -1.046875 3.46875 -1.203125 3.65625 -1.515625 C 3.851562 -1.835938 3.953125 -2.25 3.953125 -2.75 L 3.953125 -4.65625 Z M 5.453125 -4.65625 "/></g></g></g><g fill="#000000" fill-opacity="1"><g transform="translate(60.832607, 21.774195)"><g><path d="M 6.890625 -4.890625 C 7.347656 -4.890625 7.710938 -4.757812 7.984375 -4.5 C 8.253906 -4.25 8.398438 -3.910156 8.421875 -3.484375 L 8.421875 0 L 6.9375 0 L 6.9375 -2.875 C 6.925781 -3.101562 6.882812 -3.273438 6.8125 -3.390625 C 6.75 -3.515625 6.628906 -3.582031 6.453125 -3.59375 C 6.097656 -3.59375 5.820312 -3.421875 5.625 -3.078125 C 5.4375 -2.742188 5.34375 -2.351562 5.34375 -1.90625 L 5.34375 0 L 3.859375 0 L 3.859375 -2.875 C 3.835938 -3.101562 3.789062 -3.273438 3.71875 -3.390625 C 3.65625 -3.515625 3.523438 -3.582031 3.328125 -3.59375 C 2.992188 -3.59375 2.726562 -3.421875 2.53125 -3.078125 C 2.34375 -2.742188 2.25 -2.359375 2.25 -1.921875 L 2.25 0 L 0.765625 0 L 0.765625 -4.65625 L 2.125 -4.65625 L 2.21875 -3.921875 C 2.59375 -4.566406 3.15625 -4.890625 3.90625 -4.890625 C 4.28125 -4.890625 4.585938 -4.8125 4.828125 -4.65625 C 5.078125 -4.5 5.25 -4.273438 5.34375 -3.984375 C 5.539062 -4.253906 5.773438 -4.472656 6.046875 -4.640625 C 6.316406 -4.804688 6.597656 -4.890625 6.890625 -4.890625 Z M 6.890625 -4.890625 "/></g></g></g><g fill="#000000" fill-opacity="1"><g transform="translate(70.332245, 21.774195)"><g><path d="M 3.078125 -1.140625 C 3.378906 -1.140625 3.691406 -1.242188 4.015625 -1.453125 L 4.671875 -0.34375 C 4.410156 -0.195312 4.140625 -0.0820312 3.859375 0 C 3.578125 0.0820312 3.304688 0.125 3.046875 0.125 C 2.492188 0.125 2.015625 0.0195312 1.609375 -0.1875 C 1.210938 -0.394531 0.910156 -0.6875 0.703125 -1.0625 C 0.503906 -1.445312 0.40625 -1.882812 0.40625 -2.375 C 0.40625 -2.820312 0.523438 -3.238281 0.765625 -3.625 C 1.003906 -4.007812 1.328125 -4.3125 1.734375 -4.53125 C 2.148438 -4.757812 2.597656 -4.875 3.078125 -4.875 C 3.753906 -4.875 4.304688 -4.675781 4.734375 -4.28125 C 5.160156 -3.894531 5.4375 -3.34375 5.5625 -2.625 L 2.15625 -1.53125 C 2.382812 -1.269531 2.691406 -1.140625 3.078125 -1.140625 Z M 2.96875 -3.71875 C 2.632812 -3.71875 2.367188 -3.601562 2.171875 -3.375 C 1.972656 -3.144531 1.875 -2.835938 1.875 -2.453125 L 1.875 -2.359375 L 3.921875 -3.046875 C 3.765625 -3.492188 3.445312 -3.71875 2.96875 -3.71875 Z M 2.96875 -3.71875 "/></g></g></g><g fill="#000000" fill-opacity="1"><g transform="translate(76.534213, 21.774195)"><g><path d="M 4 -4.875 C 4.4375 -4.875 4.800781 -4.742188 5.09375 -4.484375 C 5.394531 -4.222656 5.546875 -3.890625 5.546875 -3.484375 L 5.546875 0 L 4.0625 0 L 4.0625 -2.921875 C 4.039062 -3.378906 3.816406 -3.609375 3.390625 -3.609375 C 3.046875 -3.609375 2.769531 -3.445312 2.5625 -3.125 C 2.351562 -2.8125 2.25 -2.398438 2.25 -1.890625 L 2.25 0 L 0.765625 0 L 0.765625 -4.65625 L 2.125 -4.65625 L 2.21875 -3.90625 C 2.394531 -4.207031 2.632812 -4.441406 2.9375 -4.609375 C 3.238281 -4.785156 3.59375 -4.875 4 -4.875 Z M 4 -4.875 "/></g></g></g><g fill="#000000" fill-opacity="1"><g transform="translate(83.172322, 21.774195)"><g><path d="M 2.6875 -6.6875 L 2.6875 -4.671875 L 3.8125 -4.671875 L 3.8125 -3.515625 L 2.6875 -3.515625 L 2.6875 0 L 1.203125 0 L 1.203125 -3.515625 L 0.484375 -3.515625 L 0.484375 -4.671875 L 1.203125 -4.671875 L 1.203125 -6.6875 Z M 2.6875 -6.6875 "/></g></g></g></svg>